<svg id="visual" viewBox="0 0 900 675" width="900" height="675" xmlns="http://www.w3.org/2000/svg" xmlns:xlink="http://www.w3.org/1999/xlink" version="1.1"><rect x="0" y="0" width="900" height="675" fill="#ede3e9"></rect><path d="M0 422L21.5 428.2C43 434.3 86 446.7 128.8 459.5C171.7 472.3 214.3 485.7 257.2 480.3C300 475 343 451 385.8 446.3C428.7 441.7 471.3 456.3 514.2 464.7C557 473 600 475 642.8 479.2C685.7 483.3 728.3 489.7 771.2 485.8C814 482 857 468 878.5 461L900 454L900 676L878.5 676C857 676 814 676 771.2 676C728.3 676 685.7 676 642.8 676C600 676 557 676 514.2 676C471.3 676 428.7 676 385.8 676C343 676 300 676 257.2 676C214.3 676 171.7 676 128.8 676C86 676 43 676 21.5 676L0 676Z" fill="#9f84bd"></path><path d="M0 536L21.5 533.8C43 531.7 86 527.3 128.8 520.5C171.7 513.7 214.3 504.3 257.2 500C300 495.7 343 496.3 385.8 493C428.7 489.7 471.3 482.3 514.2 474.7C557 467 600 459 642.8 461.8C685.7 464.7 728.3 478.3 771.2 488.8C814 499.3 857 506.7 878.5 510.3L900 514L900 676L878.5 676C857 676 814 676 771.2 676C728.3 676 685.7 676 642.8 676C600 676 557 676 514.2 676C471.3 676 428.7 676 385.8 676C343 676 300 676 257.2 676C214.3 676 171.7 676 128.8 676C86 676 43 676 21.5 676L0 676Z" fill="#b592c3"></path><path d="M0 505L21.5 510.3C43 515.7 86 526.3 128.8 527C171.7 527.7 214.3 518.3 257.2 516C300 513.7 343 518.3 385.8 524.3C428.7 530.3 471.3 537.7 514.2 538.5C557 539.3 600 533.7 642.8 535.7C685.7 537.7 728.3 547.3 771.2 547.7C814 548 857 539 878.5 534.5L900 530L900 676L878.5 676C857 676 814 676 771.2 676C728.3 676 685.7 676 642.8 676C600 676 557 676 514.2 676C471.3 676 428.7 676 385.8 676C343 676 300 676 257.2 676C214.3 676 171.7 676 128.8 676C86 676 43 676 21.5 676L0 676Z" fill="#c9a2ca"></path><path d="M0 567L21.5 574C43 581 86 595 128.8 601C171.7 607 214.3 605 257.2 603.7C300 602.3 343 601.7 385.8 595.5C428.7 589.3 471.3 577.7 514.2 571.7C557 565.7 600 565.3 642.8 569.7C685.7 574 728.3 583 771.2 589.5C814 596 857 600 878.5 602L900 604L900 676L878.5 676C857 676 814 676 771.2 676C728.3 676 685.7 676 642.8 676C600 676 557 676 514.2 676C471.3 676 428.7 676 385.8 676C343 676 300 676 257.2 676C214.3 676 171.7 676 128.8 676C86 676 43 676 21.5 676L0 676Z" fill="#dbb2d2"></path><path d="M0 626L21.5 623.7C43 621.3 86 616.7 128.8 613.8C171.7 611 214.3 610 257.2 609.3C300 608.7 343 608.3 385.8 610.2C428.7 612 471.3 616 514.2 621.5C557 627 600 634 642.8 637.8C685.7 641.7 728.3 642.3 771.2 637C814 631.7 857 620.3 878.5 614.7L900 609L900 676L878.5 676C857 676 814 676 771.2 676C728.3 676 685.7 676 642.8 676C600 676 557 676 514.2 676C471.3 676 428.7 676 385.8 676C343 676 300 676 257.2 676C214.3 676 171.7 676 128.8 676C86 676 43 676 21.5 676L0 676Z" fill="#ebc3db"></path></svg>